<svg width="78" height="16" viewBox="0 0 78 16" fill="none" xmlns="http://www.w3.org/2000/svg">
<path d="M25.424 3.48C25.648 3.48 25.828 3.552 25.964 3.696C26.1 3.832 26.168 4.016 26.168 4.248V11.352C26.168 11.576 26.104 11.752 25.976 11.88C25.848 12.008 25.68 12.072 25.472 12.072C25.264 12.072 25.1 12.008 24.98 11.88C24.86 11.752 24.8 11.576 24.8 11.352V6.408L22.76 10.272C22.664 10.448 22.56 10.58 22.448 10.668C22.336 10.748 22.204 10.788 22.052 10.788C21.9 10.788 21.768 10.748 21.656 10.668C21.544 10.588 21.44 10.456 21.344 10.272L19.292 6.468V11.352C19.292 11.568 19.228 11.744 19.1 11.88C18.98 12.008 18.816 12.072 18.608 12.072C18.4 12.072 18.236 12.008 18.116 11.88C17.996 11.752 17.936 11.576 17.936 11.352V4.248C17.936 4.016 18 3.832 18.128 3.696C18.264 3.552 18.444 3.48 18.668 3.48C18.98 3.48 19.224 3.652 19.4 3.996L22.064 9.072L24.716 3.996C24.892 3.652 25.128 3.48 25.424 3.48ZM30.5458 12.096C29.9458 12.096 29.4178 11.972 28.9618 11.724C28.5138 11.476 28.1658 11.12 27.9178 10.656C27.6698 10.192 27.5458 9.652 27.5458 9.036C27.5458 8.42 27.6698 7.884 27.9178 7.428C28.1658 6.964 28.5138 6.608 28.9618 6.36C29.4178 6.112 29.9458 5.988 30.5458 5.988C31.1458 5.988 31.6698 6.112 32.1178 6.36C32.5738 6.608 32.9218 6.964 33.1618 7.428C33.4098 7.884 33.5338 8.42 33.5338 9.036C33.5338 9.652 33.4098 10.192 33.1618 10.656C32.9218 11.12 32.5738 11.476 32.1178 11.724C31.6698 11.972 31.1458 12.096 30.5458 12.096ZM30.5338 10.932C31.0218 10.932 31.3938 10.772 31.6498 10.452C31.9058 10.132 32.0338 9.66 32.0338 9.036C32.0338 8.42 31.9058 7.952 31.6498 7.632C31.3938 7.304 31.0258 7.14 30.5458 7.14C30.0658 7.14 29.6938 7.304 29.4298 7.632C29.1738 7.952 29.0458 8.42 29.0458 9.036C29.0458 9.66 29.1738 10.132 29.4298 10.452C29.6858 10.772 30.0538 10.932 30.5338 10.932ZM37.4482 12.096C36.8482 12.096 36.3202 11.972 35.8642 11.724C35.4162 11.476 35.0682 11.12 34.8202 10.656C34.5722 10.192 34.4482 9.652 34.4482 9.036C34.4482 8.42 34.5722 7.884 34.8202 7.428C35.0682 6.964 35.4162 6.608 35.8642 6.36C36.3202 6.112 36.8482 5.988 37.4482 5.988C38.0482 5.988 38.5722 6.112 39.0202 6.36C39.4762 6.608 39.8242 6.964 40.0642 7.428C40.3122 7.884 40.4362 8.42 40.4362 9.036C40.4362 9.652 40.3122 10.192 40.0642 10.656C39.8242 11.12 39.4762 11.476 39.0202 11.724C38.5722 11.972 38.0482 12.096 37.4482 12.096ZM37.4362 10.932C37.9242 10.932 38.2962 10.772 38.5522 10.452C38.8082 10.132 38.9362 9.66 38.9362 9.036C38.9362 8.42 38.8082 7.952 38.5522 7.632C38.2962 7.304 37.9282 7.14 37.4482 7.14C36.9682 7.14 36.5962 7.304 36.3322 7.632C36.0762 7.952 35.9482 8.42 35.9482 9.036C35.9482 9.66 36.0762 10.132 36.3322 10.452C36.5882 10.772 36.9562 10.932 37.4362 10.932ZM45.0825 5.988C45.7865 5.988 46.3105 6.188 46.6545 6.588C46.9985 6.988 47.1705 7.592 47.1705 8.4V11.352C47.1705 11.576 47.1025 11.752 46.9665 11.88C46.8385 12.008 46.6585 12.072 46.4265 12.072C46.1945 12.072 46.0105 12.008 45.8745 11.88C45.7385 11.752 45.6705 11.576 45.6705 11.352V8.484C45.6705 8.028 45.5825 7.696 45.4065 7.488C45.2385 7.28 44.9705 7.176 44.6025 7.176C44.1705 7.176 43.8225 7.312 43.5585 7.584C43.3025 7.856 43.1745 8.22 43.1745 8.676V11.352C43.1745 11.576 43.1065 11.752 42.9705 11.88C42.8345 12.008 42.6505 12.072 42.4185 12.072C42.1865 12.072 42.0025 12.008 41.8665 11.88C41.7385 11.752 41.6745 11.576 41.6745 11.352V6.708C41.6745 6.5 41.7425 6.332 41.8785 6.204C42.0145 6.076 42.1985 6.012 42.4305 6.012C42.6385 6.012 42.8065 6.076 42.9345 6.204C43.0705 6.324 43.1385 6.484 43.1385 6.684V7.008C43.3385 6.68 43.6065 6.428 43.9425 6.252C44.2785 6.076 44.6585 5.988 45.0825 5.988ZM51.7541 12.108C51.1381 12.108 50.5541 12.028 50.0021 11.868C49.4581 11.7 49.0141 11.476 48.6701 11.196C48.4861 11.06 48.3941 10.868 48.3941 10.62C48.3941 10.452 48.4421 10.308 48.5381 10.188C48.6421 10.06 48.7621 9.996 48.8981 9.996C49.0421 9.996 49.2061 10.052 49.3901 10.164C49.7341 10.412 50.0941 10.592 50.4701 10.704C50.8461 10.816 51.2621 10.872 51.7181 10.872C52.3021 10.872 52.7501 10.772 53.0621 10.572C53.3741 10.364 53.5301 10.064 53.5301 9.672C53.5301 9.368 53.3821 9.136 53.0861 8.976C52.7981 8.808 52.3141 8.648 51.6341 8.496C50.9301 8.344 50.3581 8.168 49.9181 7.968C49.4781 7.768 49.1461 7.512 48.9221 7.2C48.6981 6.888 48.5861 6.492 48.5861 6.012C48.5861 5.516 48.7261 5.072 49.0061 4.68C49.2861 4.288 49.6741 3.984 50.1701 3.768C50.6741 3.544 51.2381 3.432 51.8621 3.432C53.0061 3.432 53.9381 3.736 54.6581 4.344C54.7621 4.432 54.8341 4.52 54.8741 4.608C54.9221 4.688 54.9461 4.792 54.9461 4.92C54.9461 5.088 54.8941 5.236 54.7901 5.364C54.6941 5.484 54.5781 5.544 54.4421 5.544C54.3621 5.544 54.2861 5.532 54.2141 5.508C54.1501 5.484 54.0621 5.44 53.9501 5.376C53.6221 5.136 53.3021 4.96 52.9901 4.848C52.6861 4.728 52.3101 4.668 51.8621 4.668C51.3181 4.668 50.8861 4.78 50.5661 5.004C50.2541 5.22 50.0981 5.524 50.0981 5.916C50.0981 6.244 50.2381 6.496 50.5181 6.672C50.7981 6.848 51.2741 7.012 51.9461 7.164C52.6581 7.324 53.2341 7.504 53.6741 7.704C54.1221 7.896 54.4621 8.144 54.6941 8.448C54.9341 8.752 55.0541 9.132 55.0541 9.588C55.0541 10.084 54.9141 10.524 54.6341 10.908C54.3621 11.284 53.9741 11.58 53.4701 11.796C52.9741 12.004 52.4021 12.108 51.7541 12.108ZM59.3124 10.956C59.7124 10.98 59.9124 11.16 59.9124 11.496C59.9124 11.688 59.8324 11.836 59.6724 11.94C59.5204 12.036 59.3004 12.076 59.0124 12.06L58.6884 12.036C57.3444 11.94 56.6724 11.22 56.6724 9.876V7.26H56.0724C55.8564 7.26 55.6884 7.212 55.5684 7.116C55.4564 7.02 55.4004 6.88 55.4004 6.696C55.4004 6.512 55.4564 6.372 55.5684 6.276C55.6884 6.18 55.8564 6.132 56.0724 6.132H56.6724V5.028C56.6724 4.812 56.7404 4.64 56.8764 4.512C57.0124 4.384 57.1964 4.32 57.4284 4.32C57.6524 4.32 57.8324 4.384 57.9684 4.512C58.1044 4.64 58.1724 4.812 58.1724 5.028V6.132H59.1924C59.4084 6.132 59.5724 6.18 59.6844 6.276C59.8044 6.372 59.8644 6.512 59.8644 6.696C59.8644 6.88 59.8044 7.02 59.6844 7.116C59.5724 7.212 59.4084 7.26 59.1924 7.26H58.1724V9.984C58.1724 10.576 58.4444 10.892 58.9884 10.932L59.3124 10.956ZM63.3701 12.096C62.7701 12.096 62.2421 11.972 61.7861 11.724C61.3381 11.476 60.9901 11.12 60.7421 10.656C60.4941 10.192 60.3701 9.652 60.3701 9.036C60.3701 8.42 60.4941 7.884 60.7421 7.428C60.9901 6.964 61.3381 6.608 61.7861 6.36C62.2421 6.112 62.7701 5.988 63.3701 5.988C63.9701 5.988 64.4941 6.112 64.9421 6.36C65.3981 6.608 65.7461 6.964 65.9861 7.428C66.2341 7.884 66.3581 8.42 66.3581 9.036C66.3581 9.652 66.2341 10.192 65.9861 10.656C65.7461 11.12 65.3981 11.476 64.9421 11.724C64.4941 11.972 63.9701 12.096 63.3701 12.096ZM63.3581 10.932C63.8461 10.932 64.2181 10.772 64.4741 10.452C64.7301 10.132 64.8581 9.66 64.8581 9.036C64.8581 8.42 64.7301 7.952 64.4741 7.632C64.2181 7.304 63.8501 7.14 63.3701 7.14C62.8901 7.14 62.5181 7.304 62.2541 7.632C61.9981 7.952 61.8701 8.42 61.8701 9.036C61.8701 9.66 61.9981 10.132 62.2541 10.452C62.5101 10.772 62.8781 10.932 63.3581 10.932ZM70.8724 6.012C71.0804 5.996 71.2444 6.04 71.3644 6.144C71.4844 6.248 71.5444 6.404 71.5444 6.612C71.5444 6.828 71.4924 6.988 71.3884 7.092C71.2844 7.196 71.0964 7.264 70.8244 7.296L70.4644 7.332C69.9924 7.38 69.6444 7.54 69.4204 7.812C69.2044 8.084 69.0964 8.424 69.0964 8.832V11.352C69.0964 11.584 69.0244 11.764 68.8804 11.892C68.7364 12.012 68.5564 12.072 68.3404 12.072C68.1244 12.072 67.9444 12.012 67.8004 11.892C67.6644 11.764 67.5964 11.584 67.5964 11.352V6.708C67.5964 6.484 67.6644 6.312 67.8004 6.192C67.9444 6.072 68.1204 6.012 68.3284 6.012C68.5364 6.012 68.7044 6.072 68.8324 6.192C68.9604 6.304 69.0244 6.468 69.0244 6.684V7.164C69.1764 6.812 69.4004 6.54 69.6964 6.348C70.0004 6.156 70.3364 6.048 70.7044 6.024L70.8724 6.012ZM76.717 10.392C76.853 10.392 76.961 10.444 77.041 10.548C77.129 10.652 77.173 10.792 77.173 10.968C77.173 11.216 77.025 11.424 76.729 11.592C76.457 11.744 76.149 11.868 75.805 11.964C75.461 12.052 75.133 12.096 74.821 12.096C73.877 12.096 73.129 11.824 72.577 11.28C72.025 10.736 71.749 9.992 71.749 9.048C71.749 8.448 71.869 7.916 72.109 7.452C72.349 6.988 72.685 6.628 73.117 6.372C73.557 6.116 74.053 5.988 74.605 5.988C75.133 5.988 75.593 6.104 75.985 6.336C76.377 6.568 76.681 6.896 76.897 7.32C77.113 7.744 77.221 8.244 77.221 8.82C77.221 9.164 77.069 9.336 76.765 9.336H73.225C73.273 9.888 73.429 10.296 73.693 10.56C73.957 10.816 74.341 10.944 74.845 10.944C75.101 10.944 75.325 10.912 75.517 10.848C75.717 10.784 75.941 10.696 76.189 10.584C76.429 10.456 76.605 10.392 76.717 10.392ZM74.641 7.044C74.233 7.044 73.905 7.172 73.657 7.428C73.417 7.684 73.273 8.052 73.225 8.532H75.937C75.921 8.044 75.801 7.676 75.577 7.428C75.353 7.172 75.041 7.044 74.641 7.044Z" fill="#7C82A5"/>
<path d="M12.7447 8.60297C12.6509 8.52935 12.5373 8.48223 12.4167 8.46696C12.2961 8.45169 12.1735 8.46889 12.0627 8.51659C11.3758 8.81512 10.6291 8.96877 9.87377 8.96696C8.47655 8.96536 7.13666 8.43913 6.14625 7.50303C5.15584 6.56692 4.59523 5.29686 4.58666 3.96975C4.58962 3.55383 4.64412 3.13969 4.74904 2.73588C4.7713 2.62825 4.76295 2.51692 4.72485 2.41338C4.68674 2.30983 4.62026 2.2178 4.53225 2.14678C4.44425 2.07576 4.3379 2.02831 4.22416 2.00932C4.11042 1.99033 3.9934 2.00048 3.88517 2.03874C2.86693 2.47362 1.98179 3.14723 1.31291 3.99627C0.64402 4.84532 0.213342 5.84193 0.0613342 6.89249C-0.090674 7.94305 0.040976 9.01308 0.443917 10.002C0.846857 10.991 1.50786 11.8664 2.36483 12.5461C3.22181 13.2258 4.24662 13.6874 5.34299 13.8875C6.43936 14.0877 7.57131 14.0199 8.6325 13.6904C9.69369 13.3609 10.6493 12.7806 11.4095 12.004C12.1697 11.2274 12.7096 10.28 12.9785 9.25075C13.0112 9.13291 13.0065 9.0085 12.9649 8.89321C12.9233 8.77793 12.8466 8.67693 12.7447 8.60297ZM6.5742 12.7303C5.48414 12.723 4.42311 12.3958 3.53637 11.7936C2.64964 11.1914 1.98055 10.3436 1.62073 9.3662C1.26091 8.38883 1.22793 7.32972 1.52633 6.33387C1.82472 5.33802 2.43989 4.45411 3.28761 3.80318V3.96975C3.28933 5.62838 3.98378 7.21861 5.21855 8.39144C6.45332 9.56427 8.12754 10.2239 9.87377 10.2255C10.3323 10.2271 10.7896 10.1816 11.2378 10.0898C10.7895 10.8952 10.1183 11.5691 9.29645 12.0388C8.4746 12.5085 7.53334 12.7561 6.5742 12.755V12.7303Z" fill="url(#paint0_linear_5_12)"/>
<defs>
<linearGradient id="paint0_linear_5_12" x1="6.5" y1="2" x2="6.5" y2="14" gradientUnits="userSpaceOnUse">
<stop stop-color="#9809FF"/>
<stop offset="1" stop-color="#13C5FF"/>
</linearGradient>
</defs>
</svg>
